# xmcd
#
# Track frame offsets:
#	150
#	10684
#	39505
#	67604
#	126284
#	137237
#	142876
#	182929
#	211984
#	240828
#
# Disc length: 3454 seconds
#
# Revision: 1
# Processed by: cddbd v1.5.2PL0 Copyright (c) Steve Scherf et al.
# Submitted via: audiograbber 1.83.01
#
DISCID=800d7c0a
DTITLE=Grateful Dead - 87-05-03 Frost Amphitheatre, Palo Alto CA
DYEAR=1900
DGENRE=
TTITLE0=Intro 1
TTITLE1=Touch Of Grey
TTITLE2=Promised Land
TTITLE3=Row Jimmy
TTITLE4=Itsy Bitsy Spider Tuning
TTITLE5=Little Bunny Foo Foo Tuning
TTITLE6=Peggy-O
TTITLE7=Good Times
TTITLE8=Cassidy
TTITLE9=Don't Ease Me In
EXTD=
EXTT0=
EXTT1=
EXTT2=
EXTT3=
EXTT4=
EXTT5=
EXTT6=
EXTT7=
EXTT8=
EXTT9=
PLAYORDER=
